<svg xmlns="http://www.w3.org/2000/svg" viewBox="0 0 515.43 527.97"><title>Element 1</title><g id="Ebene_2" data-name="Ebene 2"><g id="Ebene_1-2" data-name="Ebene 1"><g id="Ebene_1-2-2" data-name="Ebene 1-2"><g id="Benutzer"><path d="M322.34,277.88a106.53,106.53,0,0,1,30.29,8.47A10.19,10.19,0,0,1,356,302.46q-1.77,2-3.45,4.11a101.32,101.32,0,0,0-21.86,67.72,105.6,105.6,0,0,0,1,10.79,10.25,10.25,0,0,1-2.8,8.75l-1.58,1.6c-2.44,2.48-4.91,4.94-7.38,7.4l-2.6,2.59c-17.22,17.27-34.56,34.6-51.56,51.5a32.8,32.8,0,0,0-10.29,23.57v.24a10.17,10.17,0,0,1-10.17,10.17l-30.36,0H50.38c-7.82,0-15.58-.35-22.81-3.82C12.11,479.73,1.74,467.85.74,450.6a502.4,502.4,0,0,1,.2-58.08c1.69-29.13,14.07-53.95,34-75.18a127.39,127.39,0,0,1,59.33-36.79A149.63,149.63,0,0,1,130.71,276,63.76,63.76,0,0,1,156,280.51a161.93,161.93,0,0,0,77,9.87,174.34,174.34,0,0,0,49.69-13.2,12.84,12.84,0,0,1,5.29-1.07C299.45,276.55,311,276.57,322.34,277.88Z"/><path d="M400.77,487.89l-.4.14a.34.34,0,0,0,0-.1Z"/><path d="M215.18,245.79C148.08,246.94,92,189.43,92,122.91,92.12,56.79,147.82,0,215.07,0c66.67,0,122.94,55.43,123,123S281.59,246.69,215.18,245.79Z"/></g></g><path d="M350.41,498v18.23c0,4.77-2,8.44-6.35,10.53a12.59,12.59,0,0,1-5.34,1.16q-25.8.14-51.59,0c-6.85,0-11.62-4.78-11.65-11.61-.05-11.89,0-23.78,0-35.67a12.72,12.72,0,0,1,4.15-9.28q26-25.86,51.86-51.81c3.36-3.35,6.74-6.69,10.07-10.07,4.14-4.18,8.22-8.42,12.37-12.6a1.68,1.68,0,0,0,.46-2,84.4,84.4,0,0,1-3.76-21.45A81.44,81.44,0,0,1,368.17,319a82.46,82.46,0,0,1,51.69-30,88.93,88.93,0,0,1,24.06-.31A76.81,76.81,0,0,1,480.62,303a87.38,87.38,0,0,1,25,27.94,77.17,77.17,0,0,1,9.27,29.8,87.69,87.69,0,0,1-3.1,34.66,59.74,59.74,0,0,1-2.42,6.76c-8,18.63-21.15,32.48-38.86,42.09a73.94,73.94,0,0,1-27.69,8.21,84.48,84.48,0,0,1-24.18-.67,1.8,1.8,0,0,0-1.91.69c-3.13,3.57-6.37,7-9.42,10.68a12.82,12.82,0,0,1-10.88,4.91c-5.24-.15-10.49,0-16,0v17.82c0,7.48-4.69,12.15-12.18,12.16H350.41ZM478,347.85a22.39,22.39,0,1,0,0,.26Z"/></g></g></svg>