<svg xmlns="http://www.w3.org/2000/svg" viewBox="0 0 235.91 217.76"><defs><style>.cls-1{fill:#1d1d1b;}</style></defs><g id="Ebene_2" data-name="Ebene 2"><g id="Icon"><path id="Icon-2" data-name="Icon" class="cls-1" d="M206.81,0H10.49A10.52,10.52,0,0,0,0,10.49V175.61A10.52,10.52,0,0,0,10.49,186.1h93a1.23,1.23,0,0,0,1.13-.77,31.26,31.26,0,0,1,1.74-3.65,28.27,28.27,0,0,1,3.84-5.32,1.21,1.21,0,0,0-.91-2H14a2.22,2.22,0,0,1-2.21-2.21V43.34A2.22,2.22,0,0,1,14,41.13H203.34a2.22,2.22,0,0,1,2.21,2.21v87.15a1.21,1.21,0,0,0,.72,1.1,41.72,41.72,0,0,1,9,5.57,1.22,1.22,0,0,0,2-.94V10.49A10.52,10.52,0,0,0,206.81,0ZM64.43,29.37a3,3,0,0,1-3,2.93H14.7a3,3,0,0,1-2.95-2.93v-10a2.94,2.94,0,0,1,2.95-2.93H61.48a3,3,0,0,1,3,2.93ZM221.12,176.55a32.55,32.55,0,0,0-15.57-35.22c-13.75-8-33-6.39-44.48,10.92a29,29,0,0,0-31.71,22.09c-.12.5-.22,1-.31,1.52-7.15,1.35-12.09,5.29-14.87,10.24-7.05,12.52-.34,31.53,19.07,31.64H214a21.08,21.08,0,0,0,7.14-41.19Z"/></g></g></svg>