<svg xmlns="http://www.w3.org/2000/svg" viewBox="0 0 240.3 239.41"><title>bearbeiten</title><g id="Ebene_2" data-name="Ebene 2"><g id="Ebene_1-2" data-name="Ebene 1"><g id="bearbeiten"><path d="M11.46,239.41A11.47,11.47,0,0,1,.11,226.59c.74-5,1.74-10,2.65-15q3.68-20.33,7.36-40.65a5.24,5.24,0,0,1,1.53-3q24.9-24.81,49.76-49.68,24.11-24,48.26-48,11.68-11.61,23.44-23.15a13.43,13.43,0,0,1,1.82-1.55,4.5,4.5,0,0,1,5.89.47c.55.51,1.07,1,1.6,1.58L192.56,97.8c4,4,4,5.76,0,9.81-2.83,2.83-5.65,5.66-8.49,8.48q-36.17,36-72.34,72-20.13,20-40.33,40a4.85,4.85,0,0,1-2.43,1.22q-27.65,5-55.3,10A21.65,21.65,0,0,1,11.46,239.41ZM142.7,82.49a9.11,9.11,0,0,0-5.09-6.66c-2.35-1.08-4.37-.46-6.18,1.21-.55.51-1.11,1-1.64,1.53q-10,9.8-20,19.62c-6.76,6.64-13.55,13.26-20.27,19.94q-15.27,15.15-30.45,30.38a13,13,0,0,0-1.89,2.12A10.68,10.68,0,0,0,56,153.46c-.86,3.21,4,8,7.18,7.65a5.67,5.67,0,0,0,2.12-.63,13.35,13.35,0,0,0,2.61-2Q90,136.79,112.08,115c9.06-9,18-18,27.06-27a14.29,14.29,0,0,0,2.05-2.36A29.87,29.87,0,0,0,142.7,82.49ZM63.78,198H41.29V175.69c-.6,0-1-.08-1.48-.08-4.65,0-9.29,0-13.94,0-1.11,0-1.53.29-1.74,1.43Q21.66,190.72,19,204.36a2.14,2.14,0,0,0,.68,2.22c4.4,4.35,8.79,8.71,13.13,13.13a2.33,2.33,0,0,0,2.39.7c5.25-1,10.49-2,15.74-3L63.78,215Z"/><path d="M240.29,50.43a21.81,21.81,0,0,1-6.82,16.32q-10.38,10.4-20.82,20.73a11.66,11.66,0,0,1-2.46,1.92,4,4,0,0,1-4.85-.6c-.64-.56-1.25-1.15-1.86-1.75L153.21,36.84c-4-4-4-5.81.06-9.83,6.73-6.7,13.57-13.29,20.16-20.12a22.83,22.83,0,0,1,32.42-.27c9.21,9.3,18.53,18.5,27.77,27.77A21.43,21.43,0,0,1,240.29,50.43Z"/></g></g></g></svg>