<svg xmlns="http://www.w3.org/2000/svg" viewBox="0 0 209.68 239.14"><title>Benutzer</title><g id="Ebene_2" data-name="Ebene 2"><g id="Ebene_1-2" data-name="Ebene 1"><g id="Benutzer"><path d="M104.7,239.12q-40.08,0-80.16,0c-3.81,0-7.59-.17-11.11-1.86C5.9,233.67.85,227.88.36,219.48a245,245,0,0,1,.1-28.29C1.28,177,7.31,164.91,17,154.57a62.07,62.07,0,0,1,28.9-17.92,72.77,72.77,0,0,1,17.77-2.23A31,31,0,0,1,76,136.63a78.87,78.87,0,0,0,37.5,4.81,84.93,84.93,0,0,0,24.2-6.43,6.2,6.2,0,0,1,2.58-.52c5.58.21,11.19.22,16.73.86a52.12,52.12,0,0,1,21.64,7.85,66.33,66.33,0,0,1,24.88,27.12,53.07,53.07,0,0,1,5.4,18.59,186.59,186.59,0,0,1,.25,30.82c-.46,6.7-4.18,11.82-9.65,15.65-4.1,2.85-8.7,3.76-13.61,3.76Q145.3,239.08,104.7,239.12Z"/><path d="M104.81,119.72c-32.68.56-60-27.45-60-59.85C44.87,27.66,72,0,104.76,0c32.47,0,59.88,27,59.91,59.89S137.16,120.16,104.81,119.72Z"/></g></g></g></svg>