<svg xmlns="http://www.w3.org/2000/svg" viewBox="0 0 269.92 179.53"><title>Berechtigung</title><g id="Ebene_2" data-name="Ebene 2"><g id="Ebene_1-2" data-name="Ebene 1"><g id="Berechtigung"><path d="M135.12,179.53A146.7,146.7,0,0,1,75,166.41,154.07,154.07,0,0,1,36,141,155.92,155.92,0,0,1,1.76,96.89c-2.48-4.71-2.23-9.79.07-14.6C3.12,79.6,4.7,77,6.24,74.47A154.5,154.5,0,0,1,39.9,35a150.3,150.3,0,0,1,49.67-28A140.4,140.4,0,0,1,122.81.48,154.87,154.87,0,0,1,152.72,1a139.09,139.09,0,0,1,40.7,11.08A155.89,155.89,0,0,1,233,37.5,153.56,153.56,0,0,1,268,82.26a15.64,15.64,0,0,1,0,15A151.88,151.88,0,0,1,235.1,140c-16,14.53-34.14,25.63-54.76,32.38a133.65,133.65,0,0,1-32.37,6.4C143.69,179.09,139.4,179.29,135.12,179.53ZM135,22.36c-36.68-.65-67.6,29.69-67.7,67.23a67.62,67.62,0,0,0,135.23.3C202.67,52.71,172.23,21.85,135,22.36Z"/><path d="M91.79,78.32c10.41,5.8,20.23,5.59,29.2-2.91a19.78,19.78,0,0,0,5.33-8.72,23.79,23.79,0,0,0,.76-10.38,22.79,22.79,0,0,0-3.77-9.49c14-4.79,36-1.37,49.38,18.12,10.39,15.14,9.44,38.21-2.83,53.08-15.68,19-41.33,20.39-57.73,10.19C93.91,116.86,86.12,96.64,91.79,78.32Z"/></g></g></g></svg>