<svg xmlns="http://www.w3.org/2000/svg" viewBox="0 0 759.29 821.52"><title>Element 1</title><g id="Ebene_2" data-name="Ebene 2"><g id="Ebene_1-2" data-name="Ebene 1"><path d="M750.64,550.34c-.65-.59-1.3-1.17-1.91-1.8L674.6,472a32.9,32.9,0,0,1-9-26.83,291.57,291.57,0,0,0,0-68.86,32.9,32.9,0,0,1,9-26.83L748.73,273c.61-.63,1.26-1.21,1.91-1.8,8.71-7.88,11.19-20,5.84-29.23l-42.23-73.14c-5.34-9.26-17-13.16-28.23-9.55-.83.27-1.66.54-2.51.75L580.16,186a32.9,32.9,0,0,1-27.76-5.65,288.14,288.14,0,0,0-59.62-34.47,32.84,32.84,0,0,1-18.72-21.19L444.86,22.23c-.24-.84-.42-1.69-.6-2.55C441.79,8.19,432.57,0,421.87,0H337.41C326.72,0,317.5,8.19,315,19.68c-.18.86-.37,1.71-.61,2.55L285.23,124.64a32.86,32.86,0,0,1-18.72,21.19,287.88,287.88,0,0,0-59.62,34.47A32.9,32.9,0,0,1,179.13,186L75.78,160c-.85-.21-1.68-.48-2.52-.75-11.17-3.61-22.88.29-28.23,9.55L2.8,242c-5.34,9.27-2.86,21.35,5.85,29.23.65.59,1.3,1.17,1.91,1.8L84.69,349.5a32.89,32.89,0,0,1,9,26.83,291.57,291.57,0,0,0,0,68.86,32.89,32.89,0,0,1-9,26.83L10.56,548.54c-.61.63-1.26,1.21-1.91,1.8-8.71,7.88-11.19,20-5.85,29.23L45,652.71c5.35,9.26,17.06,13.16,28.23,9.55.84-.27,1.67-.54,2.52-.75l103.35-25.94a32.9,32.9,0,0,1,27.76,5.65,287.88,287.88,0,0,0,59.62,34.47,32.86,32.86,0,0,1,18.72,21.19l29.19,102.41c.24.84.43,1.69.61,2.55,2.47,11.49,11.69,19.68,22.38,19.68h84.46c10.7,0,19.92-8.19,22.39-19.68.18-.86.36-1.71.6-2.55l29.2-102.41a32.84,32.84,0,0,1,18.72-21.19,288.14,288.14,0,0,0,59.62-34.47,32.9,32.9,0,0,1,27.76-5.65l103.35,25.94c.85.21,1.68.48,2.51.75,11.18,3.61,22.89-.29,28.23-9.55l42.23-73.14C761.83,570.3,759.35,558.22,750.64,550.34Zm-371,24c-86.7,0-157-73.24-157-163.58s70.3-163.58,157-163.58,157,73.24,157,163.58S466.35,574.34,379.64,574.34Z"/></g></g></svg>