<svg xmlns="http://www.w3.org/2000/svg" viewBox="0 0 239.6 179.22"><title>E-Mail</title><g id="Ebene_2" data-name="Ebene 2"><g id="Ebene_1-2" data-name="Ebene 1"><g id="E-Mail"><path d="M119.9,0q47.94,0,95.9,0c3.74,0,7.42.33,10.79,2,7.16,3.59,11.77,9.24,12.69,17.31a99.19,99.19,0,0,1,.24,12.56A10.41,10.41,0,0,1,235,40.45q-32.81,24.4-65.64,48.77c-9.45,7-19,13.83-28.59,20.7a75.57,75.57,0,0,1-14.4,7.93,16.15,16.15,0,0,1-13.48-.19,84.13,84.13,0,0,1-17.24-10.15c-7.61-5.75-15.35-11.31-23-17L10.07,44.46c-1.69-1.24-3.33-2.56-5-3.79A10.41,10.41,0,0,1,.26,32.43C.05,27.16-.45,21.82,1,16.64,3.13,8.53,8.43,3.24,16.45.88A27.15,27.15,0,0,1,24,.05Q71.95,0,119.9,0Z"/><path d="M119.85,179.22H23.78c-4.94,0-9.66-.93-13.75-3.86-5.45-3.89-9-9-9.64-15.83-.22-2.33-.26-4.69-.27-7q0-44.64,0-89.28c0-.45,0-.9,0-1.35.19-2.62,2.47-3.82,4.69-2.41C6,60.24,7.15,61.17,8.32,62c12.34,9.09,24.65,18.22,37,27.25C55.55,96.71,65.87,104,76.07,111.41c5.12,3.74,9.93,7.9,15.14,11.49s10.82,7.18,17,9.37c8.37,3,16.63,2.5,24.89-.61,7.4-2.79,13.67-7.39,19.94-12,13.1-9.66,26.16-19.37,39.26-29Q213.59,75,234.93,59.42c.83-.61,1.62-1.17,2.72-.63a3.11,3.11,0,0,1,1.9,2.66c0,.45,0,.9,0,1.35q0,46.52,0,93c0,7.58-2.7,13.8-8.61,18.57A20,20,0,0,1,219.5,179c-2.79.18-5.59.24-8.39.24Z"/></g></g></g></svg>