<?xml version="1.0" encoding="utf-8"?><svg version="1.1" id="Layer_2" xmlns="http://www.w3.org/2000/svg" xmlns:xlink="http://www.w3.org/1999/xlink" x="0px" y="0px" viewBox="0 0 288 560" style="enable-background:new 0 0 288 560;" xml:space="preserve"><style type="text/css">.st0{opacity:0.36;}</style><path class="st0" d="M18.36,262.87l4.15-4.57c0,0,2.96-3.04,6.85-3.79c3.89-0.74,7.91-1.36,12.17,0.85c4.26,2.21,6.68,4.68,6.68,4.68l57.7,52.17c0,0,0.68,0.64,1.49,0c0.65-0.72,125.33-139.28,125.33-139.28s4.21-5.43,8.84-6.77c4.63-1.34,11.84-1.34,16.18,2.17s13.15,11.9,13.15,11.9s3.35,3.7,3.41,8.97c0.06,5.27-0.57,8.84-4.15,13.15c-3.57,4.31-145.96,162.27-145.96,162.27s-4.48,5.9-10.07,7.13c-8.74,2.27-14.41-1.21-14.74-1.69c-1.05-0.06-83.04-74.52-83.04-74.52s-3.52-2.23-6.44-7.43c-2-3.83-1.55-11.11-0.36-13.87c0,0,0.43-1.66,2.13-3.79S18.36,262.87,18.36,262.87z"/></svg>
