<svg xmlns="http://www.w3.org/2000/svg" viewBox="0 0 82.53 75.63"><title>Element 1</title><g id="Ebene_2" data-name="Ebene 2"><g id="Ebene"><g id="Haus"><path id="Haus-2" data-name="Haus" d="M72.19,45.33V73.54a2.1,2.1,0,0,1-2.09,2.09H48.67V57.44A2.46,2.46,0,0,0,46.22,55H36.31a2.44,2.44,0,0,0-2.44,2.44v18.2H12.43a2.1,2.1,0,0,1-2.09-2.09V45.34A1.84,1.84,0,0,1,10.89,44L41.27,13.63,71.63,44A1.85,1.85,0,0,1,72.19,45.33Z"/><path id="Dach" d="M82.53,41.26a5.6,5.6,0,0,1-7.92,0L41.26,7.91,7.91,41.26a5.59,5.59,0,0,1-7.91,0L41.26,0l4,4Z"/><path id="Schornstein" d="M72.19,5.68V27.62l-8.26-8.26a.61.61,0,0,1-.17-.42V5.68Z"/></g></g></g></svg>