<svg xmlns="http://www.w3.org/2000/svg" viewBox="0 0 95.4 108.71"><title>Element 1</title><g id="Ebene_2" data-name="Ebene 2"><g id="Ebene_1-2" data-name="Ebene 1"><g id="Kalender"><path id="unten" d="M2.51,40.76H92.89a2.51,2.51,0,0,1,2.51,2.51V98.62a10.09,10.09,0,0,1-10.09,10.09H10.09A10.09,10.09,0,0,1,0,98.62V43.27A2.51,2.51,0,0,1,2.51,40.76Z"/><path id="oben" d="M95.4,23.66v7.57a2.51,2.51,0,0,1-2.51,2.51H2.51A2.51,2.51,0,0,1,0,31.23V23.66A10.09,10.09,0,0,1,10.09,13.57H20.3V2.3A2.3,2.3,0,0,1,22.61,0h9a2.3,2.3,0,0,1,2.3,2.3V13.57H61.53V2.3A2.31,2.31,0,0,1,63.84,0h9a2.31,2.31,0,0,1,2.31,2.3V13.57H85.32A10.08,10.08,0,0,1,95.4,23.66Z"/></g></g></g></svg>