<svg xmlns="http://www.w3.org/2000/svg" viewBox="0 0 210.03 240.05"><title>loeschen</title><g id="Ebene_2" data-name="Ebene 2"><g id="Ebene_1-2" data-name="Ebene 1"><g id="loeschen"><path d="M15.08,60H195c-.23,3.85-.44,7.63-.68,11.4q-.83,13.38-1.68,26.75-1,16.23-2,32.44-.79,13-1.6,26-1,16.06-2,32.14c-.62,10-1.35,19.93-1.83,29.9a22.5,22.5,0,0,1-18.37,21,24.75,24.75,0,0,1-4.47.37q-57.3,0-114.58,0c-9.9,0-17-4.76-21.21-13.7-1.52-3.22-1.66-6.76-1.87-10.25Q23.33,194.52,22,173q-1.11-18.17-2.21-36.33-1.28-20.7-2.59-41.4L15.08,60.89C15.07,60.65,15.08,60.4,15.08,60Z"/><path d="M105,44.93H8.55c-2.89,0-5.63-.49-7.12-3.2A11.53,11.53,0,0,1,.1,36.78c-.17-4.54-.07-9.09,0-13.63C.07,17.91,3,15,8.28,15Q35.12,15,62,15a2.37,2.37,0,0,0,2.65-1.7c.78-2,1.83-3.88,2.7-5.84C69.6,2.39,73.51,0,79.13,0c16,.07,32,0,48,0,1.55,0,3.1,0,4.65,0,5.07.08,8.59,2.52,10.74,7.05,1,2.21,2.15,4.39,3.1,6.64A1.9,1.9,0,0,0,147.74,15q26.92,0,53.84,0c2.9,0,5.58.63,7.11,3.29a10.15,10.15,0,0,1,1.24,4.51c.16,4.74.09,9.49,0,14.23,0,5-2.93,7.86-8,7.89-6,0-12,0-18,0Z"/></g></g></g></svg>