<svg xmlns="http://www.w3.org/2000/svg" viewBox="0 0 143.03 143.44"><title>Element 1</title><g id="Ebene_2" data-name="Ebene 2"><g id="Ebene_1-2" data-name="Ebene 1"><path id="Lupe" d="M141.16,124.36,113.1,96.3a8.83,8.83,0,0,0-7.53-2.5,1.21,1.21,0,0,1-1-.33h0a1.18,1.18,0,0,1-.11-1.54,57.76,57.76,0,1,0-12.94,12.82,1.19,1.19,0,0,1,1.54.12l0,0a1.21,1.21,0,0,1,.33,1,8.81,8.81,0,0,0,2.51,7.53L124,141.57a6.38,6.38,0,0,0,9,0l8.18-8.18A6.39,6.39,0,0,0,141.16,124.36ZM57.78,93A35.24,35.24,0,1,1,93,57.79,35.23,35.23,0,0,1,57.78,93Z"/></g></g></svg>