<svg id="Ebene_1" data-name="Ebene 1" xmlns="http://www.w3.org/2000/svg" viewBox="0 0 239.92 240.04"><title>Anmerkung 2019-10-22 153009</title><path d="M296.37,512c0,6.24,0,12.24,0,18.23,0,4.77-2,8.44-6.35,10.53a12.7,12.7,0,0,1-5.34,1.16q-25.8.13-51.59,0c-6.85,0-11.62-4.78-11.65-11.61-.05-11.89,0-23.78,0-35.67a12.66,12.66,0,0,1,4.15-9.28q26-25.87,51.86-51.81c3.36-3.35,6.74-6.69,10.07-10.07,4.14-4.18,8.22-8.42,12.37-12.6a1.69,1.69,0,0,0,.46-2,84,84,0,0,1-3.76-21.45,81.34,81.34,0,0,1,17.54-54.41A82.38,82.38,0,0,1,365.82,303a88.52,88.52,0,0,1,24.06-.31A76.79,76.79,0,0,1,426.58,317a87.29,87.29,0,0,1,25,27.94,77.34,77.34,0,0,1,9.27,29.8,87.86,87.86,0,0,1-3.1,34.66,61,61,0,0,1-2.42,6.76c-8,18.63-21.15,32.48-38.86,42.09a74.28,74.28,0,0,1-27.69,8.21,84.83,84.83,0,0,1-24.18-.67,1.78,1.78,0,0,0-1.91.69c-3.13,3.57-6.37,7-9.42,10.68a12.86,12.86,0,0,1-10.88,4.91c-5.24-.15-10.49,0-16,0v1.64c0,5.39,0,10.79,0,16.18,0,7.48-4.69,12.15-12.18,12.16H296.37ZM423.92,361.87a22.52,22.52,0,1,0-22.54,22.52A22.4,22.4,0,0,0,423.92,361.87Z" transform="translate(-221.42 -301.99)"/></svg>