<svg xmlns="http://www.w3.org/2000/svg" viewBox="0 0 111.54 148.87"><title>Element 1</title><g id="Ebene_2" data-name="Ebene 2"><g id="Ebene_1-2" data-name="Ebene 1"><path d="M111.54,54.34l0,3.54a2.83,2.83,0,0,0,0,.41,39.56,39.56,0,0,1-2.09,13.17,80.46,80.46,0,0,1-9.76,19.21c-5.61,8.46-11.44,16.78-17.2,25.14-6.84,9.92-13.78,19.77-20.53,29.75a7.31,7.31,0,0,1-12.23,0c-5.47-8.38-11.38-16.47-17.08-24.7C24.33,108.93,15.77,97.2,8.36,84.68,4.9,78.85,2,72.82.81,66.1A60.46,60.46,0,0,1,.37,49.48,47.66,47.66,0,0,1,4.21,34.22C14,13.14,30.36,1.42,53.75.08a54,54,0,0,1,15,1.39C81.1,4.27,91.05,10.87,99,20.54a51.23,51.23,0,0,1,12.25,31.53A17.51,17.51,0,0,0,111.54,54.34Zm-55.83,25c11.64.5,23.68-9.47,23.7-23.47a23.61,23.61,0,0,0-47.21-.48C31.93,69.25,43.65,79.8,55.71,79.39Z"/></g></g></svg>