<svg xmlns="http://www.w3.org/2000/svg" viewBox="0 0 239.51 239.02"><title>Verknuepfter_Account</title><g id="Ebene_2" data-name="Ebene 2"><g id="Ebene_1-2" data-name="Ebene 1"><g id="Verknuepfter_Account"><path d="M0,168c.1-17.09,5.42-32.29,16.43-45.38,2.81-3.34,6.14-6.24,9.24-9.35,4.16-4.17,8.39-8.27,12.47-12.53,4.28-4.48,11.09-1.5,12.42,2.91a18.23,18.23,0,0,1,.6,4,86.59,86.59,0,0,0,4.35,21.8,7.54,7.54,0,0,1-1.78,8.27c-.69.72-1.39,1.43-2,2.18-2.78,3.2-5.76,6.25-8.26,9.66A30.65,30.65,0,0,0,37.73,168a31,31,0,0,0,6.46,19.82c7.58,9.75,17.39,14.68,29.91,13.72a32.69,32.69,0,0,0,21.21-9.93q15.36-15.36,30.73-30.72c8-8,11.15-17.66,9.85-28.79a29.43,29.43,0,0,0-7.49-17A78.74,78.74,0,0,0,121,108.4a6.42,6.42,0,0,1-2.47-4.72,18.58,18.58,0,0,1,6.4-15.76c3.09-2.84,6.1-5.76,9.15-8.64s5.66-3.12,9.22-.65a69.77,69.77,0,0,1,27.78,38.59A67,67,0,0,1,173.53,136,71.88,71.88,0,0,1,171,156.43a65.78,65.78,0,0,1-16.53,28.62c-12.47,12.59-24.85,25.3-37.76,37.44-8.7,8.18-19.43,13-31.26,15.15-17.41,3.18-34,1-49.5-7.8a72.42,72.42,0,0,1-21.75-19.42A65.21,65.21,0,0,1,.73,177C.43,174,.24,171,0,168Z"/><path d="M168.45,0c14.71,0,28.31,3.75,40.27,12.37C224.81,24,235.45,39.29,238.53,59.2c2.55,16.48.22,32.22-8,46.9-3.19,5.66-7.49,10.45-12,15.06-5.5,5.66-11.19,11.13-16.75,16.73-2.28,2.31-4.79,3.38-8,2.11s-5-3.49-5.19-7A84.82,84.82,0,0,0,186,115.58c-.67-2.51-1.52-5-2.19-7.46a6.38,6.38,0,0,1,1.62-6.23c2.83-3.09,5.69-6.16,8.47-9.3,5.59-6.31,7.86-13.81,8.06-22.14.35-15.31-12.08-29-25.07-32.06-11.27-2.63-21.82-.85-30.42,7.24-10.11,9.51-19.79,19.47-29.58,29.31a76.78,76.78,0,0,0-7.73,8.71c-4.14,5.66-5.71,12.18-5.68,19.18,0,11.42,5.48,20.06,14.07,26.85,3.35,2.65,4,5.69,3.57,9.45a18.3,18.3,0,0,1-6,11.55c-3.35,3.14-6.66,6.33-10,9.5-2.31,2.2-5,2.6-7.63.83a69,69,0,0,1-17-15.79,68,68,0,0,1-13.74-34c-1.5-13.21,0-26,5.5-38.21a57.65,57.65,0,0,1,11.13-17c12.94-13.18,25.87-26.39,39.2-39.17,8.57-8.21,19.15-13.14,30.83-15.34A125.56,125.56,0,0,1,168.45,0Z"/></g></g></g></svg>